<svg width="32" height="32" viewBox="0 0 32 32" fill="none" xmlns="http://www.w3.org/2000/svg">
  <!-- Background -->
  <rect width="32" height="32" rx="4" fill="#000000"/>
  
  <!-- Yellow accent -->
  <rect x="0" y="0" width="32" height="2" fill="#FFD700"/>
  <rect x="0" y="30" width="32" height="2" fill="#FFD700"/>
  
  <!-- S for Suqi -->
  <path d="M8 8 Q8 6 10 6 L18 6 Q20 6 20 8 Q20 10 18 10 L14 10 Q12 10 12 12 Q12 14 14 14 L22 14 Q24 14 24 16 Q24 18 22 18 L14 18 Q12 18 12 20 Q12 22 14 22 L22 22 Q24 22 24 24 Q24 26 22 26 L10 26 Q8 26 8 24" 
        stroke="#FFD700" 
        stroke-width="2" 
        fill="none"/>
</svg>